<?xml version="1.0" encoding="utf-8"?>
<!-- Generator: Adobe Illustrator 16.0.0, SVG Export Plug-In . SVG Version: 6.00 Build 0)  -->
<!DOCTYPE svg PUBLIC "-//W3C//DTD SVG 1.1//EN" "http://www.w3.org/Graphics/SVG/1.1/DTD/svg11.dtd">
<svg version="1.1" id="Layer_1" xmlns="http://www.w3.org/2000/svg" xmlns:xlink="http://www.w3.org/1999/xlink" x="0px" y="0px"
	 width="176.481px" height="51.312px" viewBox="0 0 176.481 51.312" enable-background="new 0 0 176.481 51.312"
	 xml:space="preserve">
<g>
	<path fill-rule="evenodd" clip-rule="evenodd" fill="#FFFFFF" d="M17.716,27.472c-2.863-3.066-5.538-5.911-8.188-8.777
		c-1.57-1.7-1.557-2.64-0.022-4.236c1.562-1.623,2.335-1.642,3.91,0.022c3.413,3.605,6.808,7.229,10.194,10.858
		c1.513,1.621,1.562,2.505,0.121,4.067c-3.414,3.705-6.851,7.392-10.319,11.047c-1.562,1.646-2.236,1.627-3.749,0.146
		c-1.67-1.636-1.764-2.632-0.285-4.229C12.078,33.452,14.812,30.566,17.716,27.472z"/>
	<path fill-rule="evenodd" clip-rule="evenodd" fill="#FFFFFF" d="M94.52,9.053c2.738,0,5.297-0.126,7.838,0.036
		c2.25,0.145,4.023,1.317,4.893,3.472c0.865,2.148,0.747,4.279-0.648,6.222c-0.385,0.539-0.863,1.01-1.428,1.661
		c2.372,1.856,2.857,4.372,2.578,7.103c-0.322,3.136-2.465,5.292-5.616,5.477c-2.468,0.144-4.95,0.029-7.616,0.029
		C94.52,25.052,94.52,17.198,94.52,9.053z M96.723,30.786c1.735,0,3.223,0.028,4.709-0.007c2.502-0.059,3.993-1.516,4.196-4.045
		c0.227-2.819-1.043-4.882-3.49-5.197c-1.743-0.226-3.538-0.044-5.415-0.044C96.723,24.641,96.723,27.542,96.723,30.786z
		 M96.748,19.3c1.91,0,3.712,0.161,5.47-0.042c1.975-0.23,3.358-2.032,3.38-3.954c0.021-1.766-1.217-3.675-2.878-3.858
		c-1.974-0.217-3.987-0.052-5.972-0.052C96.748,14.162,96.748,16.623,96.748,19.3z"/>
	<path fill-rule="evenodd" clip-rule="evenodd" fill="#FFFFFF" d="M33.006,38.053c3.622,0.001,7.244-0.016,10.864,0.008
		c2.076,0.015,2.873,0.853,2.848,2.879c-0.025,1.944-0.734,2.712-2.762,2.72C36.638,43.691,29.319,43.691,22,43.663
		c-2.245-0.009-2.756-0.606-2.737-2.878c0.017-2.195,0.543-2.715,2.878-2.726C25.763,38.039,29.385,38.053,33.006,38.053z"/>
	<path fill-rule="evenodd" clip-rule="evenodd" fill="#FFFFFF" d="M137.762,33.296c-0.807-0.702-1.239-1.079-1.712-1.491
		c-0.194,0.078-0.424,0.117-0.587,0.243c-1.999,1.533-4.199,1.688-6.389,0.649c-2.203-1.042-2.658-3.096-2.606-5.345
		c0.046-1.961-0.002-3.923,0.011-5.885c0.031-4.852,3.287-7.066,7.886-5.374c0.342,0.126,0.685,0.253,1.334,0.492
		c0-2.142,0.028-4.076-0.01-6.009c-0.031-1.553,0.718-1.75,2.073-1.291C137.762,17.145,137.762,24.956,137.762,33.296z
		 M135.683,24.485c0.004,0,0.007,0,0.009,0c0-1.127,0-2.253,0-3.381c0-0.15,0.006-0.301-0.006-0.451
		c-0.152-2.032-1.223-2.967-3.426-2.994c-2.284-0.027-3.491,0.816-3.578,2.795c-0.115,2.625-0.111,5.261-0.008,7.886
		c0.078,2.016,1.275,2.91,3.503,2.902c2.21-0.007,3.372-0.942,3.492-2.927C135.745,27.043,135.683,25.762,135.683,24.485z"/>
	<path fill-rule="evenodd" clip-rule="evenodd" fill="#FFFFFF" d="M41.425,26.421c1.299-0.405,1.984-0.071,1.877,1.325
		c-0.035,0.449-0.048,0.911-0.159,1.345c-0.782,3.017-3.43,4.475-7.578,4.192c-3.206-0.216-5.425-2.095-5.53-5.17
		c-0.16-4.746-0.148-9.504,0.008-14.251c0.09-2.73,1.993-4.52,4.713-4.999c3.632-0.641,6.435,0.306,7.759,2.753
		c0.416,0.768,0.629,1.686,0.761,2.56c0.212,1.4-0.382,1.997-1.876,1.476c-0.118-0.505-0.233-1.015-0.355-1.523
		c-0.583-2.389-2.331-3.482-5.164-3.233c-2.288,0.201-3.64,1.616-3.672,4.047c-0.053,4.074-0.057,8.148,0,12.223
		c0.034,2.402,1.422,3.831,3.703,4.038c2.813,0.254,4.51-0.834,5.126-3.288C41.167,27.41,41.301,26.906,41.425,26.421z"/>
	<path fill-rule="evenodd" clip-rule="evenodd" fill="#FFFFFF" d="M153.343,33.295c-0.907-0.744-1.346-1.104-1.821-1.493
		c-0.195,0.083-0.422,0.13-0.586,0.258c-1.997,1.552-4.207,1.661-6.373,0.623c-2.169-1.039-2.67-3.092-2.629-5.34
		c0.035-1.957-0.008-3.917,0.01-5.875c0.044-4.906,3.514-7.155,8.106-5.262c0.265,0.109,0.522,0.231,1.212,0.538
		c0-2.13-0.083-3.973,0.046-5.8c0.046-0.646,0.521-1.71,0.958-1.796c1.303-0.259,1.066,0.913,1.068,1.681
		C153.35,18.123,153.343,25.415,153.343,33.295z M151.246,24.417c0.006,0,0.01,0,0.015,0c0-0.603,0.001-1.204,0-1.807
		c-0.002-0.677,0.047-1.36-0.017-2.032c-0.192-2.051-1.385-2.962-3.758-2.921c-2.207,0.037-3.26,0.959-3.311,3.076
		c-0.059,2.481-0.061,4.969,0.002,7.45c0.055,2.08,1.15,3.022,3.351,3.06c2.335,0.04,3.554-0.899,3.7-2.988
		C151.319,26.981,151.246,25.697,151.246,24.417z"/>
	<path fill-rule="evenodd" clip-rule="evenodd" fill="#FFFFFF" d="M74.101,33.299c-0.904-0.752-1.34-1.114-1.806-1.503
		c-0.205,0.089-0.434,0.136-0.6,0.265c-1.993,1.561-4.205,1.66-6.368,0.626c-2.166-1.037-2.673-3.087-2.633-5.336
		c0.037-1.956-0.008-3.914,0.009-5.87c0.046-4.916,3.473-7.147,8.096-5.284c0.269,0.108,0.542,0.205,1.232,0.466
		c0-2.196-0.062-4.19,0.046-6.174c0.027-0.491,0.615-0.952,0.946-1.426c0.358,0.443,1.027,0.883,1.03,1.328
		C74.12,17.832,74.101,25.272,74.101,33.299z M64.925,24.305c0,1.204-0.001,2.408,0,3.611c0,0.151-0.006,0.303,0.007,0.452
		c0.167,1.912,1.227,2.829,3.314,2.872c2.229,0.046,3.613-0.841,3.711-2.722c0.143-2.701,0.148-5.421,0.01-8.122
		c-0.104-1.978-1.492-2.833-3.904-2.739c-2.031,0.08-3.043,1.032-3.131,3.036C64.881,21.896,64.924,23.102,64.925,24.305z"/>
	<path fill-rule="evenodd" clip-rule="evenodd" fill="#FFFFFF" d="M89.732,24.607c-3.312,0-6.151,0-8.926,0
		c-1.001,3.647-0.34,5.936,1.771,6.543c2.815,0.808,4.348-0.312,5.258-3.844c1.736-0.079,2.027,0.828,1.64,2.303
		c-0.61,2.323-2.433,3.627-5.269,3.69c-3.121,0.07-5.355-0.997-5.6-3.412c-0.359-3.559-0.36-7.204-0.022-10.767
		c0.234-2.493,2.413-3.616,5.483-3.572c2.969,0.042,4.924,1.323,5.372,3.813C89.726,20.956,89.637,22.618,89.732,24.607z
		 M80.605,23.018c1.384,0,2.644,0.003,3.903,0c0.602-0.001,1.214,0.063,1.797-0.038c0.39-0.066,0.9-0.281,1.075-0.591
		c0.983-1.729-0.429-4.393-2.438-4.708C81.493,17.141,80.061,18.764,80.605,23.018z"/>
	<path fill-rule="evenodd" clip-rule="evenodd" fill="#FFFFFF" d="M58.708,24.409c-0.002,1.353,0.049,2.708-0.011,4.058
		c-0.133,2.921-1.881,4.614-4.893,4.812c-3.672,0.243-6.079-1.179-6.347-4.208c-0.27-3.055-0.27-6.17-0.008-9.228
		c0.259-3.045,2.719-4.543,6.307-4.286c3.09,0.223,4.855,1.995,4.947,5.016C58.743,21.851,58.709,23.129,58.708,24.409z
		 M49.529,24.429c0,1.13-0.001,2.259,0.001,3.388c0,0.151-0.006,0.301,0.005,0.451c0.138,1.883,1.111,2.849,2.995,2.973
		c2.355,0.155,3.905-0.718,4.021-2.624c0.169-2.773,0.167-5.571,0.007-8.346c-0.111-1.907-1.593-2.739-4.012-2.61
		c-1.906,0.102-2.904,1.036-3,2.931C49.483,21.869,49.534,23.15,49.529,24.429z"/>
	<path fill-rule="evenodd" clip-rule="evenodd" fill="#FFFFFF" d="M122.317,16.075c0,5.597,0,11.18,0,17.088
		c-0.759-0.587-1.255-0.973-1.641-1.271c-1.117,0.46-2.107,1.07-3.173,1.268c-3.83,0.713-6.348-1.356-6.409-5.238
		c-0.062-3.906-0.013-7.813-0.013-11.722c1.588-0.729,2.174-0.233,2.162,1.313c-0.029,3.313-0.029,6.626-0.006,9.938
		c0.021,2.799,0.994,3.807,3.567,3.79c2.521-0.016,3.478-1.057,3.491-3.866c0.02-3.312,0.035-6.625-0.004-9.938
		C120.275,15.951,120.896,15.561,122.317,16.075z"/>
	<path fill-rule="evenodd" clip-rule="evenodd" fill="#FFFFFF" d="M158.222,39.517c0.702-1.957,1.273-3.829,2.042-5.615
		c0.695-1.622,0.734-3.093,0.076-4.767c-1.377-3.5-2.562-7.076-3.812-10.625c-0.269-0.758-0.476-1.539-0.716-2.322
		c1.52-0.745,2.068-0.07,2.467,1.112c1.201,3.557,2.456,7.095,4.146,10.724c0.287-0.789,0.583-1.573,0.858-2.365
		c0.987-2.844,2.017-5.675,2.929-8.543c0.396-1.248,1.094-1.461,2.346-1.084c-0.063,0.39-0.069,0.747-0.183,1.064
		c-2.509,7.015-5.028,14.025-7.547,21.037C160.434,39.234,160.047,40.35,158.222,39.517z"/>
</g>
</svg>
